<svg id="Layer_1" data-name="Layer 1" xmlns="http://www.w3.org/2000/svg" viewBox="0 0 1000 1290.98"><defs><style>.cls-1,.cls-2{fill:#e1e2e1;}.cls-2{font-size:216.71px;font-family:UTM-Avo, UTM Avo;}.cls-3{letter-spacing:-0.02em;}.cls-4{letter-spacing:0.04em;}.cls-5{letter-spacing:-0.02em;}.cls-6{fill:#a7a6a6;}.cls-7{fill:#828282;}.cls-8{fill:#787878;}.cls-9{fill:#878787;}.cls-10{fill:#7c7b7b;}.cls-11{fill:#7f8080;opacity:0.6;}.cls-12{fill:#676868;}.cls-13{fill:#6c6d6d;}.cls-14{fill:#5e5e5e;}.cls-15{fill:#939393;}.cls-16{fill:#d2d2d2;}.cls-17{fill:#919090;}.cls-18{fill:#b0b0b0;}</style></defs><circle class="cls-1" cx="945.46" cy="1203.03" r="19.43"/><text class="cls-2" transform="translate(68.14 1222.41)"><tspan class="cls-3">A</tspan><tspan class="cls-4" x="155.55" y="0">-</tspan><tspan class="cls-5" x="235.33" y="0">C</tspan><tspan x="407.7" y="0">ARD</tspan></text><rect class="cls-1" x="36.35" y="1270.95" width="916.23" height="17.75"/><polygon class="cls-6" points="541.98 497.65 632.21 673.39 786.08 576.79 673.75 357.99 541.98 497.65"/><polygon class="cls-7" points="0 995.88 18.59 958.09 146.96 916.33 71.9 995.88 0 995.88"/><polygon class="cls-8" points="278.81 873.44 287.28 889.92 118.5 995.88 71.9 995.88 146.96 916.33 278.81 873.44"/><polygon class="cls-9" points="359.88 690.65 353.27 704.09 548.41 704.09 569.74 712.6 350.67 850.06 303.42 865.43 274.71 865.43 278.81 873.44 146.96 916.33 359.88 690.65"/><polygon class="cls-10" points="632.21 673.39 786.08 576.79 843.99 689.58 661.83 748.84 569.74 712.6 583.3 704.09 647.97 704.09 632.21 673.39"/><polygon class="cls-11" points="548.41 704.09 583.3 704.09 569.74 712.6 548.41 704.09"/><polygon class="cls-12" points="350.67 850.06 661.83 748.84 569.74 712.6 350.67 850.06"/><polygon class="cls-8" points="303.42 865.43 326.3 865.43 350.67 850.06 303.42 865.43"/><polygon class="cls-13" points="928.23 853.67 843.99 689.58 661.83 748.84 928.23 853.67"/><polygon class="cls-14" points="118.5 995.88 341.68 995.88 287.28 889.92 118.5 995.88"/><polygon class="cls-14" points="1001.24 995.88 928.23 853.67 661.83 748.84 350.67 850.06 326.3 865.43 726.53 865.43 662.35 995.88 1001.24 995.88"/><path class="cls-1" d="M673.86,358,542.1,497.65,497.6,411,385,639.85l-64.32-25.31A135.48,135.48,0,0,0,263.28,461L490.09,0Z"/><path class="cls-15" d="M385,639.85l-25,50.8L147.08,916.32,18.71,958.09,144.44,702.55a135.52,135.52,0,0,0,176.24-88Z"/><path class="cls-16" d="M326.42,575.45a134.89,134.89,0,0,1-5.74,39.09L209.29,570.72l54-109.75A135.19,135.19,0,0,1,326.42,575.45Z"/><path class="cls-17" d="M320.68,614.54a135.52,135.52,0,0,1-176.24,88l64.85-131.83Z"/><path class="cls-18" d="M263.28,461l-54,109.75L144.44,702.55A135.37,135.37,0,1,1,263.28,461Z"/></svg>