<svg id="Layer_1" data-name="Layer 1" xmlns="http://www.w3.org/2000/svg" viewBox="0 0 1000 1000"><defs><style>.cls-1{fill:#a7a6a6;}.cls-2{fill:#828282;}.cls-3{fill:#787878;}.cls-4{fill:#878787;}.cls-5{fill:#7c7b7b;}.cls-6{fill:#7f8080;opacity:0.6;}.cls-7{fill:#676868;}.cls-8{fill:#6c6d6d;}.cls-9{fill:#5e5e5e;}.cls-10{fill:#e1e2e1;}.cls-11{fill:#939393;}.cls-12{fill:#d2d2d2;}.cls-13{fill:#919090;}.cls-14{fill:#b0b0b0;}</style></defs><polygon class="cls-1" points="541.36 499.7 631.59 675.45 785.46 578.85 673.13 360.04 541.36 499.7"/><polygon class="cls-2" points="-0.62 997.94 17.98 960.15 146.34 918.39 71.28 997.94 -0.62 997.94"/><polygon class="cls-3" points="278.2 875.49 286.66 891.98 117.88 997.94 71.28 997.94 146.34 918.39 278.2 875.49"/><polygon class="cls-4" points="359.26 692.71 352.65 706.15 547.79 706.15 569.12 714.66 350.05 852.12 302.8 867.49 274.09 867.49 278.2 875.49 146.34 918.39 359.26 692.71"/><polygon class="cls-5" points="631.59 675.45 785.46 578.85 843.37 691.64 661.21 750.9 569.12 714.66 582.68 706.15 647.35 706.15 631.59 675.45"/><polygon class="cls-6" points="547.79 706.15 582.68 706.15 569.12 714.66 547.79 706.15"/><polygon class="cls-7" points="350.05 852.12 661.21 750.9 569.12 714.66 350.05 852.12"/><polygon class="cls-3" points="302.8 867.49 325.68 867.49 350.05 852.12 302.8 867.49"/><polygon class="cls-8" points="927.61 855.72 843.37 691.64 661.21 750.9 927.61 855.72"/><polygon class="cls-9" points="117.88 997.94 341.06 997.94 286.66 891.98 117.88 997.94"/><polygon class="cls-9" points="1000.62 997.94 927.61 855.72 661.21 750.9 350.05 852.12 325.68 867.49 725.91 867.49 661.73 997.94 1000.62 997.94"/><path class="cls-10" d="M673.24,360.05,541.48,499.7,497,413,384.38,641.91,320.06,616.6A135.48,135.48,0,0,0,262.66,463l226.81-461Z"/><path class="cls-11" d="M384.38,641.91l-25,50.79L146.46,918.38,18.09,960.15,143.82,704.61a135.52,135.52,0,0,0,176.24-88Z"/><path class="cls-12" d="M325.8,577.51a134.89,134.89,0,0,1-5.74,39.09L208.67,572.78l54-109.75A135.19,135.19,0,0,1,325.8,577.51Z"/><path class="cls-13" d="M320.06,616.6a135.52,135.52,0,0,1-176.24,88l64.85-131.83Z"/><path class="cls-14" d="M262.66,463l-54,109.75L143.82,704.61A135.37,135.37,0,1,1,262.66,463Z"/></svg>